<svg width="60" height="60" viewBox="0 0 48 48" fill="none" class="service_icons">
    <rect x="5" y="6" width="38" height="30" rx="3" fill="#E6F1FB" stroke="#378ADD"
          stroke-width="1.4"/>
    <rect x="5" y="6" width="38" height="6" rx="3" fill="#185FA5"/>
    <rect x="5" y="9" width="38" height="3" fill="#185FA5"/>
    <circle cx="10" cy="9" r="1.2" fill="#B5D4F4" opacity=".7"/>
    <circle cx="14" cy="9" r="1.2" fill="#B5D4F4" opacity=".5"/>
    <rect x="5" y="12" width="10" height="24" fill="#0C447C" opacity=".15"/>
    <rect x="7" y="15" width="6" height="1.5" rx=".7" fill="#185FA5"/>
    <rect x="7" y="19" width="6" height="1.5" rx=".7" fill="#378ADD"/>
    <rect x="7" y="23" width="6" height="1.5" rx=".7" fill="#85B7EB"/>
    <rect x="7" y="27" width="6" height="1.5" rx=".7" fill="#85B7EB"/>
    <g class="panel">
        <rect x="17" y="14" width="24" height="6" rx="1.5" fill="#B5D4F4"/>
        <rect x="17" y="22" width="11" height="5" rx="1.5" fill="#85B7EB"/>
        <rect x="30" y="22" width="11" height="5" rx="1.5" fill="#378ADD"/>
        <rect x="17" y="29" width="24" height="3" rx="1" fill="#E6F1FB" stroke="#B5D4F4"
              stroke-width=".7"/>
    </g>
    <circle class="status1" cx="39" cy="15" r="2" fill="#378ADD"/>
    <circle class="status2" cx="39" cy="22" r="2" fill="#85B7EB"/>
    <circle class="status3" cx="39" cy="29" r="2" fill="#B5D4F4"/>
    <rect x="19" y="36" width="10" height="2" rx="1" fill="#B5D4F4"/>
    <rect x="16" y="38" width="16" height="2" rx="1" fill="#85B7EB"/>
</svg>