<svg width="23" height="26" viewBox="0 0 23 26" fill="none" xmlns="http://www.w3.org/2000/svg">
    <path d="M19.2051 3.29507C21.2705 5.36023 22.4518 8.14772 22.4991 11.0681C22.5465 13.9885 21.4562 16.8128 19.4588 18.9438L19.2051 19.2063L13.9013 24.5088C13.2284 25.1814 12.3249 25.573 11.374 25.6043C10.4231 25.6356 9.49585 25.3043 8.78007 24.6776L8.60007 24.5088L3.29507 19.2051C1.18527 17.0953 0 14.2338 0 11.2501C0 8.26637 1.18527 5.40487 3.29507 3.29507C5.40487 1.18527 8.26637 0 11.2501 0C14.2338 0 17.0953 1.18527 19.2051 3.29507ZM11.2501 7.50007C10.7576 7.50007 10.27 7.59707 9.81501 7.78552C9.36003 7.97398 8.94664 8.2502 8.59842 8.59842C8.2502 8.94664 7.97398 9.36003 7.78552 9.81501C7.59707 10.27 7.50007 10.7576 7.50007 11.2501C7.50007 11.7425 7.59707 12.2302 7.78552 12.6851C7.97398 13.1401 8.2502 13.5535 8.59842 13.9017C8.94664 14.2499 9.36003 14.5262 9.81501 14.7146C10.27 14.9031 10.7576 15.0001 11.2501 15.0001C12.2446 15.0001 13.1985 14.605 13.9017 13.9017C14.605 13.1985 15.0001 12.2446 15.0001 11.2501C15.0001 10.2555 14.605 9.30168 13.9017 8.59842C13.1985 7.89516 12.2446 7.50007 11.2501 7.50007Z"
          fill="#61A4FF"/>
</svg>
