<svg width="309" height="321" viewBox="0 0 309 321" fill="none" xmlns="http://www.w3.org/2000/svg">
<path d="M250.274 32.9431C255.491 37.2848 260.46 41.88 265.376 46.5563C266.021 47.148 266.665 47.7397 267.329 48.3493C290.34 70.1238 304.672 103.496 308.376 134.556C308.417 136.889 308.43 139.224 308.376 141.556C306.026 138.031 304.996 134.432 303.751 130.431C290.881 90.8315 262.114 56.1687 225.126 36.8727C216.796 32.7164 208.239 29.389 199.376 26.5563C198.531 26.2839 197.686 26.0114 196.816 25.7306C162.463 15.221 123.041 20.3006 91.4425 36.5329C79.5411 42.9312 69.184 51.3332 59.376 60.5563C58.7122 61.1441 58.0483 61.732 57.3643 62.3376C35.2855 82.7594 21.6321 117.227 20.2208 146.811C18.9019 186.608 27.1661 223.206 54.9044 253.01C73.037 272.057 97.6589 285.577 124.271 286.724C146.814 286.837 166.573 280.609 183.165 264.822C194.806 252.893 200.218 238.647 200.751 222.119C200.594 211.027 196.973 201.859 189.001 194.056C179.116 185.918 166.504 183.34 154.251 180.994C138.955 178.04 123.547 174.338 113.376 161.556C108.861 154.155 108.14 146.033 109.376 137.556C110.878 133.189 112.881 129.433 115.376 125.556C115.786 124.901 116.196 124.247 116.618 123.572C124.618 112.74 139.589 106.769 152.376 104.556C156.915 104.31 161.456 104.325 166.001 104.306C167.222 104.286 168.443 104.265 169.7 104.244C177.407 104.211 184.072 105.068 191.376 107.556C189.963 112.384 187.946 116.273 185.376 120.556C183.742 120.319 183.742 120.319 182.075 120.076C164.997 117.962 147.645 117.837 133.474 128.713C128.743 132.871 126.294 136.296 125.376 142.619C125.153 147.074 125.709 149.856 128.376 153.556C136.97 162.15 148.613 163.989 160.064 166.494C180.629 170.997 200.081 175.825 212.376 194.556C220.463 207.791 220.053 225.001 217.376 239.869C211.765 261.612 197.742 279.953 178.814 291.869C176.679 293.118 174.534 294.349 172.376 295.556C171.094 296.281 171.094 296.281 169.786 297.021C162.128 301.105 153.182 304.996 144.376 304.556C144.376 305.216 144.376 305.876 144.376 306.556C192.97 306.336 234.76 294.865 270.048 259.963C283.924 245.928 297.088 227.421 303.376 208.556C304.036 208.556 304.696 208.556 305.376 208.556C303.251 218.108 299.552 226.757 295.376 235.556C295.076 236.191 294.775 236.826 294.466 237.48C287.003 252.97 276.41 266.352 264.376 278.556C263.478 279.468 262.579 280.379 261.653 281.318C233.955 308.026 196.808 321.047 158.751 320.931C158.01 320.93 157.268 320.929 156.505 320.928C122.638 320.779 90.3376 309.13 63.376 288.556C62.4608 287.863 61.5456 287.169 60.6026 286.455C32.9269 264.647 12.9308 233.312 4.62605 199.056C4.42729 198.239 4.22853 197.421 4.02375 196.579C0.980511 183.267 -0.0374778 170.095 0.00104782 156.494C0.00192398 155.731 0.00280014 154.968 0.00370285 154.182C0.163504 111.793 16.7622 75.3673 45.376 44.5563C45.9265 43.9518 46.4769 43.3472 47.044 42.7243C98.6786 -11.7151 193.269 -13.192 250.274 32.9431Z" fill="url(#paint0_linear_4_37)"/>
<path d="M203.376 80.5564C202.777 84.1063 201.824 87.1045 200.314 90.3689C199.951 91.1591 199.589 91.9493 199.216 92.7634C198.8 93.6509 198.8 93.6509 198.376 94.5564C197.118 94.2676 195.86 93.9789 194.564 93.6814C185.325 91.6531 176.552 90.1884 167.064 90.2439C165.558 90.2513 165.558 90.2513 164.021 90.2588C156.111 90.383 148.971 91.2086 141.376 93.5564C140.295 93.8851 139.213 94.2138 138.099 94.5525C121.658 100.202 108.247 111.585 99.7511 126.697C94.881 136.824 94.3929 150.04 98.0011 160.744C103.777 173.835 114.298 181.471 127.376 186.556C135.144 189.131 143.156 190.917 151.169 192.541C163.22 194.994 175.809 197.954 183.376 208.556C187.95 216.407 188.855 224.77 186.61 233.552C184.844 238.718 182.702 243.191 179.376 247.556C178.572 248.763 178.572 248.763 177.751 249.994C171.429 256.815 163.389 261.327 154.376 263.556C151.552 263.654 151.552 263.654 149.376 263.556C150.077 263 150.779 262.443 151.501 261.869C152.45 261.106 153.399 260.343 154.376 259.556C155.325 258.855 156.274 258.154 157.251 257.431C165.179 250.794 170.585 240.766 171.571 230.529C171.874 224.633 170.872 220.349 167.376 215.556C159.914 209.556 150.812 208.141 141.689 206.056C119.78 200.995 98.0459 194.85 84.9112 175.103C77.055 162.07 74.6957 146.182 78.2511 131.306C84.3794 111.631 100.106 93.8501 118.309 84.22C144.454 71.0814 176.157 68.9752 203.376 80.5564Z" fill="url(#paint1_linear_4_37)"/>
<defs>
<linearGradient id="paint0_linear_4_37" x1="154.206" y1="0" x2="154.206" y2="320.932" gradientUnits="userSpaceOnUse">
<stop stop-color="#61A4FF"/>
<stop offset="0.721154" stop-color="#132133"/>
</linearGradient>
<linearGradient id="paint1_linear_4_37" x1="140.006" y1="72.9926" x2="140.006" y2="263.63" gradientUnits="userSpaceOnUse">
<stop stop-color="#61A4FF"/>
<stop offset="0.721154" stop-color="#132133"/>
</linearGradient>
</defs>
</svg>
