<svg width="587" height="249" viewBox="0 0 587 249" fill="none" xmlns="http://www.w3.org/2000/svg">
    <path d="M351.929 111.071C347.665 111.071 343.553 110.629 339.594 109.742C335.673 108.815 332.475 107.633 330 106.198L334.835 96.9595C337.157 98.2241 339.841 99.2796 342.868 100.123C345.933 100.925 348.978 101.326 352.005 101.326C354.023 101.326 355.66 101.178 356.897 100.883C358.134 100.544 359.029 100.123 359.581 99.6168C360.171 99.0688 360.476 98.4349 360.476 97.7183C360.476 96.7066 359.924 95.904 358.839 95.3138C357.735 94.7237 356.326 94.2373 354.594 93.8579C352.862 93.4785 350.939 93.0991 348.807 92.7197C346.713 92.3387 344.619 91.8539 342.487 91.2638C340.412 90.672 338.49 89.9132 336.758 88.9858C335.025 88.0147 333.617 86.7695 332.532 85.2519C331.447 83.6906 330.895 81.7288 330.895 79.3665C330.895 76.7076 331.732 74.3031 333.426 72.1516C335.159 70.0001 337.728 68.2702 341.155 66.9618C344.562 65.655 348.826 65 353.928 65C357.354 65 360.685 65.3389 363.959 66.0133C367.271 66.6456 370.222 67.5957 372.811 68.8604L368.261 78.1635C365.787 77.0253 363.35 76.1806 360.913 75.6326C358.477 75.0425 356.136 74.7458 353.851 74.7458C351.815 74.7458 350.197 74.9355 348.94 75.3165C347.703 75.6537 346.827 76.1174 346.275 76.7075C345.723 77.2993 345.457 77.9738 345.457 78.7326C345.457 79.7038 345.971 80.4836 347.018 81.0754C348.103 81.6234 349.53 82.0871 351.263 82.4665C353.033 82.8037 354.974 83.1637 357.049 83.543C359.181 83.9224 361.275 84.4072 363.369 84.999C365.501 85.547 367.424 86.3058 369.156 87.277C370.888 88.2044 372.278 89.4495 373.325 91.0109C374.41 92.5284 374.962 94.4481 374.962 96.7698C374.962 99.3428 374.086 101.726 372.354 103.92C370.679 106.071 368.128 107.801 364.702 109.11C361.332 110.416 357.068 111.071 351.929 111.071ZM407.988 111.071C403.819 111.071 399.974 110.502 396.472 109.363C392.95 108.223 389.866 106.621 387.258 104.554C384.67 102.443 382.671 99.9962 381.224 97.2124C379.797 94.427 379.073 91.3692 379.073 88.0357C379.073 84.7023 379.797 81.6445 381.224 78.8591C382.671 76.0753 384.67 73.6497 387.258 71.5826C389.866 69.4732 392.95 67.8487 396.472 66.7089C399.974 65.5707 403.819 65 407.988 65C412.195 65 416.021 65.5707 419.504 66.7089C423.007 67.8487 426.053 69.4732 428.641 71.5826C431.211 73.6497 433.21 76.0753 434.657 78.8591C436.141 81.6445 436.884 84.7023 436.884 88.0357C436.884 91.3692 436.141 94.448 434.657 97.2756C433.21 100.059 431.211 102.485 428.641 104.554C426.053 106.621 423.007 108.223 419.504 109.363C416.021 110.502 412.195 111.071 407.988 111.071ZM407.988 100.693C409.968 100.693 411.795 100.397 413.47 99.8065C415.202 99.2164 416.706 98.3716 417.925 97.2756C419.219 96.1358 420.209 94.7869 420.913 93.2256C421.655 91.6642 422.017 89.9343 422.017 88.0357C422.017 86.095 421.655 84.3651 420.913 82.8475C420.209 81.2862 419.219 79.9567 417.925 78.8591C416.706 77.7209 415.202 76.8551 413.47 76.2649C411.795 75.6748 409.968 75.3797 407.988 75.3797C405.989 75.3797 404.143 75.6748 402.411 76.2649C400.717 76.8551 399.232 77.7209 397.956 78.8591C396.719 79.9567 395.71 81.2862 394.968 82.8475C394.283 84.3651 393.94 86.095 393.94 88.0357C393.94 89.9343 394.283 91.6642 394.968 93.2256C395.71 94.7869 396.719 96.1358 397.956 97.2756C399.232 98.3716 400.717 99.2164 402.411 99.8065C404.143 100.397 405.989 100.693 407.988 100.693ZM458.261 85.3151H482.264V94.9977H458.261V85.3151ZM459.308 110.185H444.593V65.8869H485.386V75.5694H459.308V110.185ZM492.258 110.185V65.8869H506.961V110.185H492.258ZM511.187 110.185L534.145 65.8869H548.633L571.666 110.185H556.359L538.379 72.0252H544.175L526.194 110.185H511.187ZM523.742 101.579L527.532 92.3387H552.943L556.731 101.579H523.742ZM366.255 176.072C361.995 176.072 357.883 175.63 353.92 174.743C350.008 173.815 346.812 172.633 344.336 171.199L349.165 161.96C351.493 163.225 354.167 164.28 357.19 165.123C360.261 165.926 363.306 166.326 366.329 166.326C368.358 166.326 369.993 166.179 371.233 165.884C372.47 165.545 373.363 165.123 373.907 164.617C374.501 164.069 374.798 163.435 374.798 162.719C374.798 161.707 374.254 160.904 373.165 160.314C372.074 159.724 370.662 159.238 368.929 158.858C367.195 158.479 365.263 158.099 363.133 157.72C361.052 157.339 358.947 156.854 356.819 156.264C354.738 155.672 352.831 154.913 351.097 153.986C349.363 153.015 347.952 151.77 346.862 150.252C345.773 148.691 345.226 146.729 345.226 144.367C345.226 141.708 346.07 139.303 347.754 137.152C349.487 135 352.062 133.27 355.481 131.962C358.898 130.655 363.158 130 368.259 130C371.678 130 375.021 130.339 378.291 131.013C381.609 131.646 384.556 132.596 387.133 133.86L382.601 143.164C380.124 142.025 377.672 141.181 375.243 140.633C372.816 140.042 370.464 139.746 368.185 139.746C366.156 139.746 364.521 139.935 363.282 140.316C362.044 140.654 361.151 141.117 360.607 141.708C360.063 142.299 359.79 142.974 359.79 143.733C359.79 144.704 360.31 145.484 361.349 146.075C362.44 146.623 363.853 147.087 365.585 147.467C367.368 147.804 369.301 148.164 371.381 148.543C373.511 148.923 375.616 149.407 377.697 149.999C379.825 150.547 381.757 151.306 383.491 152.277C385.226 153.205 386.611 154.45 387.653 156.011C388.741 157.529 389.288 159.448 389.288 161.77C389.288 164.343 388.42 166.727 386.686 168.921C385.003 171.072 382.452 172.802 379.033 174.11C375.666 175.417 371.406 176.072 366.255 176.072ZM422.31 176.072C418.149 176.072 414.31 175.503 410.794 174.363C407.276 173.224 404.206 171.622 401.581 169.554C399.005 167.443 396.999 164.997 395.562 162.213C394.126 159.427 393.407 156.369 393.407 153.036C393.407 149.702 394.126 146.645 395.562 143.859C396.999 141.075 399.005 138.65 401.581 136.583C404.206 134.473 407.276 132.849 410.794 131.709C414.31 130.571 418.149 130 422.31 130C426.521 130 430.359 130.571 433.827 131.709C437.343 132.849 440.39 134.473 442.966 136.583C445.541 138.65 447.548 141.075 448.983 143.859C450.47 146.645 451.212 149.702 451.212 153.036C451.212 156.369 450.47 159.448 448.983 162.276C447.548 165.06 445.541 167.486 442.966 169.554C440.39 171.622 437.343 173.224 433.827 174.363C430.359 175.503 426.521 176.072 422.31 176.072ZM422.31 165.694C424.292 165.694 426.123 165.397 427.808 164.807C429.542 164.217 431.029 163.372 432.266 162.276C433.555 161.136 434.544 159.787 435.237 158.226C435.982 156.665 436.353 154.934 436.353 153.036C436.353 151.095 435.982 149.365 435.237 147.848C434.544 146.286 433.555 144.957 432.266 143.859C431.029 142.721 429.542 141.855 427.808 141.265C426.123 140.675 424.292 140.38 422.31 140.38C420.329 140.38 418.471 140.675 416.737 141.265C415.054 141.855 413.567 142.721 412.279 143.859C411.041 144.957 410.05 146.286 409.307 147.848C408.614 149.365 408.268 151.095 408.268 153.036C408.268 154.934 408.614 156.665 409.307 158.226C410.05 159.787 411.041 161.136 412.279 162.276C413.567 163.372 415.054 164.217 416.737 164.807C418.471 165.397 420.329 165.694 422.31 165.694ZM472.589 150.315H496.587V159.998H472.589V150.315ZM473.628 175.185H458.917V130.887H499.708V140.569H473.628V175.185ZM518.02 175.185V140.822H502.048V130.887H548.633V140.822H532.733V175.185H518.02Z" fill="#132133"/>
    <path d="M2.41895 105.388L66.6635 105.759L139.188 45.8383L224.834 106.132L290.817 105.759L137.879 1.17578L2.41895 105.388Z" fill="url(#paint0_linear_281_6321)" stroke="url(#paint1_linear_281_6321)"/>
    <path d="M290.929 143.664L226.703 143.293L154.171 203.214L68.5247 142.92L2.54227 143.293L155.48 247.876L290.929 143.664Z" fill="url(#paint2_linear_281_6321)" stroke="url(#paint3_linear_281_6321)"/>
    <path d="M75.8579 47.2859L4.64648 47.0151L217.057 195.183L285.95 194.205L75.8579 47.2859Z" fill="#B6D5FF" stroke="url(#paint4_linear_281_6321)"/>
    <path d="M316 121L586.079 121" stroke="black" stroke-width="1.03084"/>
    <defs>
        <linearGradient id="paint0_linear_281_6321" x1="146.618" y1="1.17578" x2="146.618" y2="106.132" gradientUnits="userSpaceOnUse">
            <stop stop-color="#396399"/>
            <stop offset="1" stop-color="#132133"/>
        </linearGradient>
        <linearGradient id="paint1_linear_281_6321" x1="146.618" y1="1.17578" x2="146.618" y2="106.132" gradientUnits="userSpaceOnUse">
            <stop stop-color="#132133"/>
            <stop offset="1" stop-color="#396399"/>
        </linearGradient>
        <linearGradient id="paint2_linear_281_6321" x1="146.735" y1="142.92" x2="146.735" y2="247.876" gradientUnits="userSpaceOnUse">
            <stop stop-color="#132133"/>
            <stop offset="1" stop-color="#396399"/>
        </linearGradient>
        <linearGradient id="paint3_linear_281_6321" x1="146.735" y1="142.92" x2="146.735" y2="247.876" gradientUnits="userSpaceOnUse">
            <stop stop-color="#396399"/>
            <stop offset="1" stop-color="#132133"/>
        </linearGradient>
        <linearGradient id="paint4_linear_281_6321" x1="145.298" y1="47.0151" x2="145.298" y2="195.183" gradientUnits="userSpaceOnUse">
            <stop stop-color="#396399"/>
            <stop offset="1" stop-color="#B6D5FF"/>
        </linearGradient>
    </defs>
</svg>
