<svg class="hero-svg" width="100%" height="100%" viewBox="0 0 1440 600" preserveAspectRatio="xMidYMid slice"
     xmlns="http://www.w3.org/2000/svg">
    <defs>
        <linearGradient id="bgGradient">
            <stop offset="0%" stop-color="rgba(97, 136, 187, 1)" />
            <stop offset="50%" stop-color="rgba(44, 62, 85, 1)" />
        </linearGradient>
    </defs>

    <!-- Background -->
    <rect width="1440" height="600" fill="url(#bgGradient)"/>    <g stroke="#61A4FF" stroke-width="0.4" opacity="0.07">
        <line x1="0" y1="100" x2="1440" y2="100"/>
        <line x1="0" y1="200" x2="1440" y2="200"/>
        <line x1="0" y1="300" x2="1440" y2="300"/>
        <line x1="0" y1="400" x2="1440" y2="400"/>
        <line x1="0" y1="500" x2="1440" y2="500"/>
        <line x1="200" y1="0" x2="200" y2="600"/>
        <line x1="400" y1="0" x2="400" y2="600"/>
        <line x1="600" y1="0" x2="600" y2="600"/>
        <line x1="800" y1="0" x2="800" y2="600"/>
        <line x1="1000" y1="0" x2="1000" y2="600"/>
        <line x1="1200" y1="0" x2="1200" y2="600"/>
        <line x1="1400" y1="0" x2="1400" y2="600"/>
    </g>
    <ellipse class="orb1" cx="300" cy="300" rx="400" ry="300" fill="#132133" opacity="0.05"/>
    <ellipse class="orb2" cx="1200" cy="250" rx="350" ry="280" fill="#132133" opacity="0.08"/>
    <rect class="scan-line" x="-200" y="0" width="200" height="600" fill="#132133" opacity="0.03"/>

    <circle class="p1" cx="820" cy="80" r="3" fill="#132133" opacity="0.5"/>
    <circle class="p2" cx="780" cy="180" r="2" fill="#132133" opacity="0.4"/>
    <circle class="p3" cx="1020" cy="480" r="3.5" fill="#132133" opacity="0.6"/>
    <circle class="p1" cx="1380" cy="140" r="2.5" fill="#132133" opacity="0.3"/>
    <circle class="p2" cx="700" cy="420" r="1.5" fill="#132133" opacity="0.3"/>
    <path d="M 1400 20 L 1420 20 L 1420 44" fill="none" stroke="#61A4FF" stroke-width="2"
          stroke-linecap="round" opacity="0.25"/>
    <path d="M 20 556 L 20 576 L 44 576" fill="none" stroke="#315382" stroke-width="2"
          stroke-linecap="round" opacity="0.25"/>
</svg>