<svg width="247" height="213" viewBox="0 0 247 213" fill="none" xmlns="http://www.w3.org/2000/svg">
    <path d="M143.626 106.728L111.302 136.612L128.379 150.029L160.398 120.45L143.626 106.728Z" fill="#61A4FF"/>
    <path d="M166.191 85.6875L161.007 91.1764L178.389 105.204L199.43 85.6875H166.191Z" fill="#61A4FF"/>
    <path d="M85.6877 29.5791H48.4852L160.093 120.451H196.99L85.6877 29.5791Z" fill="#B6D5FF"/>
    <path d="M135.393 14.0273L120.146 28.0545L164.972 64.3422H198.82L135.393 14.0273Z" fill="#2C3E55"/>
    <path d="M111.302 136.612L126.549 122.585L81.7235 86.2975L47.8753 86.2975L111.302 136.612Z" fill="#2C3E55"/>
    <path d="M80.5037 64.342H46.9605L67.6963 45.1309L85.0778 59.463L80.5037 64.342Z" fill="#61A4FF"/>
    <path d="M102.764 43.6062L85.6877 29.579L118.011 0L135.393 14.0272L102.764 43.6062Z" fill="#61A4FF"/>
    <path d="M12.3341 202.823C10.0963 202.823 7.93653 202.55 5.85481 202.003C3.79912 201.431 2.12074 200.702 0.819674 199.817L3.35676 194.119C4.57977 194.899 5.98492 195.55 7.57223 196.07C9.18555 196.565 10.7859 196.812 12.3732 196.812C13.4401 196.812 14.2988 196.721 14.9493 196.539C15.5998 196.33 16.0682 196.07 16.3544 195.758C16.6667 195.42 16.8228 195.029 16.8228 194.587C16.8228 193.963 16.5366 193.468 15.9641 193.104C15.3917 192.74 14.65 192.44 13.7393 192.206C12.8285 191.972 11.8137 191.738 10.6948 191.504C9.6019 191.269 8.49599 190.97 7.37707 190.606C6.28417 190.241 5.28234 189.773 4.37159 189.201C3.46085 188.602 2.71924 187.834 2.14677 186.898C1.57429 185.935 1.28806 184.725 1.28806 183.268C1.28806 181.628 1.73042 180.145 2.61515 178.818C3.5259 177.491 4.87901 176.424 6.67449 175.617C8.46997 174.811 10.7078 174.407 13.388 174.407C15.1835 174.407 16.9399 174.616 18.6573 175.032C20.4008 175.422 21.949 176.008 23.3022 176.788L20.9212 182.526C19.6201 181.824 18.3321 181.303 17.057 180.965C15.782 180.601 14.546 180.418 13.349 180.418C12.2821 180.418 11.4234 180.535 10.7729 180.77C10.1223 180.978 9.65394 181.264 9.3677 181.628C9.08147 181.993 8.93835 182.409 8.93835 182.877C8.93835 183.476 9.21158 183.957 9.75802 184.322C10.3305 184.66 11.0721 184.946 11.9829 185.18C12.9196 185.388 13.9345 185.61 15.0274 185.844C16.1463 186.078 17.2522 186.377 18.3451 186.742C19.464 187.08 20.4788 187.548 21.3896 188.147C22.3003 188.719 23.0289 189.487 23.5754 190.45C24.1479 191.386 24.4341 192.57 24.4341 194.002C24.4341 195.589 23.9787 197.059 23.068 198.412C22.1832 199.739 20.8431 200.806 19.0477 201.613C17.2782 202.419 15.0404 202.823 12.3341 202.823ZM41.7823 202.823C39.5965 202.823 37.5799 202.472 35.7324 201.769C33.8848 201.066 32.2715 200.078 30.8924 198.803C29.5393 197.501 28.4854 195.992 27.7308 194.275C26.9762 192.557 26.5988 190.671 26.5988 188.615C26.5988 186.559 26.9762 184.673 27.7308 182.955C28.4854 181.238 29.5393 179.742 30.8924 178.467C32.2715 177.166 33.8848 176.164 35.7324 175.461C37.5799 174.759 39.5965 174.407 41.7823 174.407C43.9942 174.407 46.0108 174.759 47.8323 175.461C49.6798 176.164 51.2801 177.166 52.6333 178.467C53.9864 179.742 55.0402 181.238 55.7949 182.955C56.5755 184.673 56.9658 186.559 56.9658 188.615C56.9658 190.671 56.5755 192.57 55.7949 194.314C55.0402 196.031 53.9864 197.527 52.6333 198.803C51.2801 200.078 49.6798 201.066 47.8323 201.769C46.0108 202.472 43.9942 202.823 41.7823 202.823ZM41.7823 196.422C42.8232 196.422 43.786 196.239 44.6707 195.875C45.5815 195.511 46.3621 194.99 47.0126 194.314C47.6892 193.611 48.2096 192.779 48.5739 191.816C48.9642 190.853 49.1594 189.786 49.1594 188.615C49.1594 187.418 48.9642 186.351 48.5739 185.415C48.2096 184.452 47.6892 183.632 47.0126 182.955C46.3621 182.253 45.5815 181.719 44.6707 181.355C43.786 180.991 42.8232 180.809 41.7823 180.809C40.7415 180.809 39.7657 180.991 38.8549 181.355C37.9702 181.719 37.1896 182.253 36.513 182.955C35.8625 183.632 35.342 184.452 34.9517 185.415C34.5874 186.351 34.4053 187.418 34.4053 188.615C34.4053 189.786 34.5874 190.853 34.9517 191.816C35.342 192.779 35.8625 193.611 36.513 194.314C37.1896 194.99 37.9702 195.511 38.8549 195.875C39.7657 196.239 40.7415 196.422 41.7823 196.422ZM68.1955 186.937H80.8028V192.909H68.1955V186.937ZM68.7419 202.276H61.0136V174.954H82.4422V180.926H68.7419V202.276ZM86.0566 202.276V174.954H93.785V202.276H86.0566ZM96.0046 202.276L108.066 174.954H115.677L127.777 202.276H119.736L110.29 178.74H113.335L103.889 202.276H96.0046ZM102.601 196.968L104.592 191.269H117.941L119.931 196.968H102.601ZM150.929 202.823C148.691 202.823 146.531 202.55 144.449 202.003C142.394 201.431 140.715 200.702 139.414 199.817L141.951 194.119C143.174 194.899 144.579 195.55 146.167 196.07C147.78 196.565 149.38 196.812 150.968 196.812C152.034 196.812 152.893 196.721 153.544 196.539C154.194 196.33 154.663 196.07 154.949 195.758C155.261 195.42 155.417 195.029 155.417 194.587C155.417 193.963 155.131 193.468 154.559 193.104C153.986 192.74 153.244 192.44 152.334 192.206C151.423 191.972 150.408 191.738 149.289 191.504C148.196 191.269 147.09 190.97 145.972 190.606C144.879 190.241 143.877 189.773 142.966 189.201C142.055 188.602 141.314 187.834 140.741 186.898C140.169 185.935 139.882 184.725 139.882 183.268C139.882 181.628 140.325 180.145 141.21 178.818C142.12 177.491 143.473 176.424 145.269 175.617C147.064 174.811 149.302 174.407 151.982 174.407C153.778 174.407 155.534 174.616 157.252 175.032C158.995 175.422 160.543 176.008 161.897 176.788L159.516 182.526C158.215 181.824 156.927 181.303 155.651 180.965C154.376 180.601 153.14 180.418 151.943 180.418C150.877 180.418 150.018 180.535 149.367 180.77C148.717 180.978 148.248 181.264 147.962 181.628C147.676 181.993 147.533 182.409 147.533 182.877C147.533 183.476 147.806 183.957 148.352 184.322C148.925 184.66 149.667 184.946 150.577 185.18C151.514 185.388 152.529 185.61 153.622 185.844C154.741 186.078 155.847 186.377 156.94 186.742C158.058 187.08 159.073 187.548 159.984 188.147C160.895 188.719 161.623 189.487 162.17 190.45C162.742 191.386 163.029 192.57 163.029 194.002C163.029 195.589 162.573 197.059 161.662 198.412C160.778 199.739 159.438 200.806 157.642 201.613C155.873 202.419 153.635 202.823 150.929 202.823ZM180.377 202.823C178.191 202.823 176.174 202.472 174.327 201.769C172.479 201.066 170.866 200.078 169.487 198.803C168.134 197.501 167.08 195.992 166.325 194.275C165.571 192.557 165.193 190.671 165.193 188.615C165.193 186.559 165.571 184.673 166.325 182.955C167.08 181.238 168.134 179.742 169.487 178.467C170.866 177.166 172.479 176.164 174.327 175.461C176.174 174.759 178.191 174.407 180.377 174.407C182.589 174.407 184.605 174.759 186.427 175.461C188.274 176.164 189.875 177.166 191.228 178.467C192.581 179.742 193.635 181.238 194.389 182.955C195.17 184.673 195.56 186.559 195.56 188.615C195.56 190.671 195.17 192.57 194.389 194.314C193.635 196.031 192.581 197.527 191.228 198.803C189.875 200.078 188.274 201.066 186.427 201.769C184.605 202.472 182.589 202.823 180.377 202.823ZM180.377 196.422C181.418 196.422 182.38 196.239 183.265 195.875C184.176 195.511 184.957 194.99 185.607 194.314C186.284 193.611 186.804 192.779 187.168 191.816C187.559 190.853 187.754 189.786 187.754 188.615C187.754 187.418 187.559 186.351 187.168 185.415C186.804 184.452 186.284 183.632 185.607 182.955C184.957 182.253 184.176 181.719 183.265 181.355C182.38 180.991 181.418 180.809 180.377 180.809C179.336 180.809 178.36 180.991 177.449 181.355C176.565 181.719 175.784 182.253 175.107 182.955C174.457 183.632 173.936 184.452 173.546 185.415C173.182 186.351 173 187.418 173 188.615C173 189.786 173.182 190.853 173.546 191.816C173.936 192.779 174.457 193.611 175.107 194.314C175.784 194.99 176.565 195.511 177.449 195.875C178.36 196.239 179.336 196.422 180.377 196.422ZM206.79 186.937H219.397V192.909H206.79V186.937ZM207.336 202.276H199.608V174.954H221.037V180.926H207.336V202.276ZM230.657 202.276V181.082H222.266V174.954H246.739V181.082H238.386V202.276H230.657Z" fill="white"/>
</svg>
