<svg width="729" height="321" viewBox="0 0 729 321" fill="none" xmlns="http://www.w3.org/2000/svg">
<path d="M366.524 66.688C370.748 66.688 374.204 67.328 376.892 68.608C379.644 69.824 382.076 71.264 384.188 72.928C385.468 73.888 386.428 74.016 387.068 73.312C387.772 72.544 388.252 70.784 388.508 68.032H390.716C390.588 70.528 390.492 73.568 390.428 77.152C390.364 80.672 390.332 85.376 390.332 91.264H388.124C387.804 88.32 387.388 85.824 386.876 83.776C386.364 81.664 385.66 79.808 384.764 78.208C383.868 76.608 382.588 75.168 380.924 73.888C379.324 72.288 377.468 71.104 375.356 70.336C373.244 69.568 371.036 69.184 368.732 69.184C365.276 69.184 362.332 70.112 359.9 71.968C357.468 73.76 355.484 76.224 353.948 79.36C352.476 82.496 351.388 86.048 350.684 90.016C349.98 93.92 349.628 97.984 349.628 102.208C349.628 106.496 349.98 110.624 350.684 114.592C351.452 118.496 352.604 121.984 354.14 125.056C355.74 128.128 357.788 130.56 360.284 132.352C362.78 134.144 365.724 135.04 369.116 135.04C371.228 135.04 373.34 134.656 375.452 133.888C377.628 133.056 379.484 131.872 381.02 130.336C383.516 128.416 385.212 126.048 386.108 123.232C387.004 120.352 387.676 116.544 388.124 111.808H390.332C390.332 117.888 390.364 122.816 390.428 126.592C390.492 130.304 390.588 133.44 390.716 136H388.508C388.252 133.248 387.804 131.52 387.164 130.816C386.588 130.112 385.596 130.208 384.188 131.104C381.82 132.768 379.292 134.24 376.604 135.52C373.98 136.736 370.588 137.344 366.428 137.344C359.644 137.344 353.692 135.968 348.572 133.216C343.516 130.464 339.58 126.496 336.764 121.312C333.948 116.128 332.54 109.888 332.54 102.592C332.54 95.424 333.98 89.152 336.86 83.776C339.804 78.4 343.804 74.208 348.86 71.2C353.98 68.192 359.868 66.688 366.524 66.688ZM434.212 66.688C440.996 66.688 446.916 68.064 451.972 70.816C457.092 73.568 461.06 77.536 463.876 82.72C466.692 87.84 468.1 94.08 468.1 101.44C468.1 108.608 466.66 114.88 463.78 120.256C460.9 125.632 456.868 129.824 451.684 132.832C446.564 135.84 440.708 137.344 434.116 137.344C427.332 137.344 421.38 135.968 416.26 133.216C411.204 130.464 407.268 126.496 404.452 121.312C401.636 116.128 400.228 109.888 400.228 102.592C400.228 95.424 401.668 89.152 404.548 83.776C407.492 78.4 411.492 74.208 416.548 71.2C421.668 68.192 427.556 66.688 434.212 66.688ZM433.828 68.416C430.244 68.416 427.108 69.856 424.42 72.736C421.796 75.616 419.748 79.584 418.276 84.64C416.868 89.696 416.164 95.552 416.164 102.208C416.164 108.992 416.964 114.912 418.564 119.968C420.228 124.96 422.436 128.832 425.188 131.584C428.004 134.272 431.108 135.616 434.5 135.616C438.084 135.616 441.188 134.176 443.812 131.296C446.5 128.416 448.548 124.448 449.956 119.392C451.428 114.272 452.164 108.416 452.164 101.824C452.164 94.976 451.332 89.056 449.668 84.064C448.068 79.072 445.86 75.232 443.044 72.544C440.292 69.792 437.22 68.416 433.828 68.416ZM516.577 74.368C525.729 74.368 533.473 75.392 539.809 77.44C546.145 79.424 550.977 82.432 554.305 86.464C557.633 90.432 559.297 95.424 559.297 101.44C559.297 107.264 557.601 112.288 554.209 116.512C550.817 120.672 545.921 123.904 539.521 126.208C533.185 128.512 525.505 129.664 516.481 129.664C507.393 129.664 499.649 128.608 493.249 126.496C486.913 124.384 482.081 121.248 478.753 117.088C475.425 112.928 473.761 107.776 473.761 101.632C473.761 96 475.457 91.168 478.849 87.136C482.241 83.04 487.137 79.904 493.537 77.728C499.937 75.488 507.617 74.368 516.577 74.368ZM516.193 75.808C509.921 75.808 504.833 76.704 500.929 78.496C497.025 80.288 494.177 83.072 492.385 86.848C490.593 90.56 489.697 95.36 489.697 101.248C489.697 107.712 490.689 112.928 492.673 116.896C494.657 120.8 497.665 123.68 501.697 125.536C505.793 127.328 510.849 128.224 516.865 128.224C523.201 128.224 528.289 127.296 532.129 125.44C536.033 123.52 538.881 120.64 540.673 116.8C542.465 112.896 543.361 107.904 543.361 101.824C543.361 95.552 542.369 90.528 540.385 86.752C538.401 82.912 535.393 80.128 531.361 78.4C527.393 76.672 522.337 75.808 516.193 75.808ZM531.457 60.928V62.848C529.409 62.912 527.841 63.168 526.753 63.616C525.729 64 525.057 64.768 524.737 65.92C524.417 67.008 524.257 68.736 524.257 71.104V132.928C524.257 135.232 524.417 136.96 524.737 138.112C525.121 139.264 525.825 140.032 526.849 140.416C527.873 140.8 529.409 141.056 531.457 141.184V143.104C529.729 142.976 527.553 142.88 524.929 142.816C522.305 142.816 519.649 142.816 516.961 142.816C513.889 142.816 510.977 142.816 508.225 142.816C505.537 142.88 503.393 142.976 501.793 143.104V141.184C503.841 141.056 505.377 140.8 506.401 140.416C507.425 140.032 508.097 139.264 508.417 138.112C508.801 136.96 508.993 135.232 508.993 132.928V71.104C508.993 68.736 508.801 67.008 508.417 65.92C508.097 64.768 507.393 64 506.305 63.616C505.281 63.168 503.777 62.912 501.793 62.848V60.928C503.393 60.992 505.537 61.056 508.225 61.12C510.977 61.184 513.889 61.216 516.961 61.216C519.649 61.216 522.305 61.184 524.929 61.12C527.553 61.056 529.729 60.992 531.457 60.928ZM593.184 68.032V69.952C591.136 70.016 589.6 70.272 588.576 70.72C587.552 71.104 586.848 71.872 586.464 73.024C586.144 74.112 585.984 75.84 585.984 78.208V125.824C585.984 128.128 586.144 129.856 586.464 131.008C586.848 132.16 587.552 132.928 588.576 133.312C589.6 133.696 591.136 133.952 593.184 134.08V136C591.456 135.872 589.28 135.808 586.656 135.808C584.032 135.744 581.376 135.712 578.688 135.712C575.552 135.712 572.64 135.744 569.952 135.808C567.328 135.808 565.184 135.872 563.52 136V134.08C565.504 133.952 567.008 133.696 568.032 133.312C569.12 132.928 569.824 132.16 570.144 131.008C570.528 129.856 570.72 128.128 570.72 125.824V78.208C570.72 75.84 570.528 74.112 570.144 73.024C569.824 71.872 569.12 71.104 568.032 70.72C567.008 70.272 565.504 70.016 563.52 69.952V68.032C565.184 68.096 567.328 68.16 569.952 68.224C572.64 68.288 575.552 68.32 578.688 68.32C581.376 68.32 584.032 68.288 586.656 68.224C589.28 68.16 591.456 68.096 593.184 68.032ZM615.264 73.312C615.264 73.312 615.264 73.664 615.264 74.368C615.264 75.008 615.264 75.68 615.264 76.384C615.328 77.088 615.36 77.44 615.36 77.44L583.296 131.68L582.432 128.992L615.264 73.312ZM635.808 68.032V69.952C633.76 70.016 632.224 70.272 631.2 70.72C630.176 71.104 629.472 71.872 629.088 73.024C628.768 74.112 628.608 75.84 628.608 78.208V125.824C628.608 128.128 628.768 129.856 629.088 131.008C629.472 132.16 630.176 132.928 631.2 133.312C632.224 133.696 633.76 133.952 635.808 134.08V136C634.144 135.872 631.968 135.808 629.28 135.808C626.592 135.744 623.712 135.712 620.64 135.712C617.952 135.712 615.264 135.744 612.576 135.808C609.952 135.808 607.808 135.872 606.144 136V134.08C608.128 133.952 609.632 133.696 610.656 133.312C611.68 132.928 612.384 132.16 612.768 131.008C613.152 129.856 613.344 128.128 613.344 125.824V78.208C613.344 75.84 613.152 74.112 612.768 73.024C612.384 71.872 611.68 71.104 610.656 70.72C609.632 70.272 608.128 70.016 606.144 69.952V68.032C607.808 68.096 609.952 68.16 612.576 68.224C615.264 68.288 617.952 68.32 620.64 68.32C623.712 68.32 626.592 68.288 629.28 68.224C631.968 68.16 634.144 68.096 635.808 68.032ZM702.75 68.032V69.952C700.702 70.016 699.166 70.272 698.142 70.72C697.118 71.104 696.414 71.872 696.03 73.024C695.71 74.112 695.55 75.84 695.55 78.208V125.824C695.55 128.128 695.71 129.856 696.03 131.008C696.414 132.16 697.118 132.928 698.142 133.312C699.166 133.696 700.702 133.952 702.75 134.08V136C701.15 135.872 698.974 135.808 696.222 135.808C693.534 135.744 690.654 135.712 687.582 135.712C684.958 135.712 682.302 135.744 679.614 135.808C676.926 135.808 674.75 135.872 673.086 136V134.08C675.07 133.952 676.574 133.696 677.598 133.312C678.686 132.928 679.39 132.16 679.71 131.008C680.094 129.856 680.286 128.128 680.286 125.824V78.208C680.286 74.88 679.902 72.672 679.134 71.584C678.43 70.496 676.83 69.952 674.334 69.952C669.982 69.952 666.91 71.328 665.118 74.08C663.326 76.832 662.43 80.672 662.43 85.6C662.43 88.608 662.782 91.36 663.486 93.856C664.19 96.288 665.534 98.24 667.518 99.712C669.502 101.12 672.382 101.824 676.158 101.824H684.414C684.414 101.824 684.414 102.144 684.414 102.784C684.414 103.424 684.414 103.744 684.414 103.744H675.198C669.502 103.744 664.798 103.232 661.086 102.208C657.374 101.184 654.43 99.808 652.254 98.08C650.142 96.352 648.638 94.4 647.742 92.224C646.91 90.048 646.494 87.776 646.494 85.408C646.494 81.76 647.454 78.656 649.374 76.096C651.358 73.472 654.302 71.488 658.206 70.144C662.174 68.8 667.134 68.128 673.086 68.128C674.302 68.128 676.318 68.16 679.134 68.224C682.014 68.288 685.022 68.32 688.158 68.32C690.846 68.32 693.534 68.288 696.222 68.224C698.974 68.16 701.15 68.096 702.75 68.032ZM683.838 102.112L683.646 103.744H673.278C671.294 103.744 669.726 104.352 668.574 105.568C667.486 106.72 666.622 108.32 665.982 110.368C665.342 112.352 664.798 114.688 664.35 117.376L662.622 126.976C661.918 130.944 660.446 133.664 658.206 135.136C655.966 136.608 653.15 137.344 649.758 137.344C647.006 137.344 644.638 136.896 642.654 136C640.67 135.168 638.846 133.76 637.182 131.776L638.526 130.624C639.166 131.328 639.742 131.872 640.254 132.256C640.83 132.576 641.534 132.768 642.366 132.832C643.582 132.832 644.51 132.32 645.15 131.296C645.79 130.272 646.366 128.48 646.878 125.92L648.894 116.032C649.726 111.936 651.614 108.992 654.558 107.2C657.502 105.408 661.726 104.16 667.23 103.456C668.446 103.264 669.662 103.104 670.878 102.976C672.094 102.848 673.694 102.72 675.678 102.592C677.726 102.4 680.446 102.24 683.838 102.112ZM366.524 194.688C370.748 194.688 374.204 195.328 376.892 196.608C379.644 197.824 382.076 199.264 384.188 200.928C385.468 201.888 386.428 202.016 387.068 201.312C387.772 200.544 388.252 198.784 388.508 196.032H390.716C390.588 198.528 390.492 201.568 390.428 205.152C390.364 208.672 390.332 213.376 390.332 219.264H388.124C387.804 216.32 387.388 213.824 386.876 211.776C386.364 209.664 385.66 207.808 384.764 206.208C383.868 204.608 382.588 203.168 380.924 201.888C379.324 200.288 377.468 199.104 375.356 198.336C373.244 197.568 371.036 197.184 368.732 197.184C365.276 197.184 362.332 198.112 359.9 199.968C357.468 201.76 355.484 204.224 353.948 207.36C352.476 210.496 351.388 214.048 350.684 218.016C349.98 221.92 349.628 225.984 349.628 230.208C349.628 234.496 349.98 238.624 350.684 242.592C351.452 246.496 352.604 249.984 354.14 253.056C355.74 256.128 357.788 258.56 360.284 260.352C362.78 262.144 365.724 263.04 369.116 263.04C371.228 263.04 373.34 262.656 375.452 261.888C377.628 261.056 379.484 259.872 381.02 258.336C383.516 256.416 385.212 254.048 386.108 251.232C387.004 248.352 387.676 244.544 388.124 239.808H390.332C390.332 245.888 390.364 250.816 390.428 254.592C390.492 258.304 390.588 261.44 390.716 264H388.508C388.252 261.248 387.804 259.52 387.164 258.816C386.588 258.112 385.596 258.208 384.188 259.104C381.82 260.768 379.292 262.24 376.604 263.52C373.98 264.736 370.588 265.344 366.428 265.344C359.644 265.344 353.692 263.968 348.572 261.216C343.516 258.464 339.58 254.496 336.764 249.312C333.948 244.128 332.54 237.888 332.54 230.592C332.54 223.424 333.98 217.152 336.86 211.776C339.804 206.4 343.804 202.208 348.86 199.2C353.98 196.192 359.868 194.688 366.524 194.688ZM434.212 194.688C440.996 194.688 446.916 196.064 451.972 198.816C457.092 201.568 461.06 205.536 463.876 210.72C466.692 215.84 468.1 222.08 468.1 229.44C468.1 236.608 466.66 242.88 463.78 248.256C460.9 253.632 456.868 257.824 451.684 260.832C446.564 263.84 440.708 265.344 434.116 265.344C427.332 265.344 421.38 263.968 416.26 261.216C411.204 258.464 407.268 254.496 404.452 249.312C401.636 244.128 400.228 237.888 400.228 230.592C400.228 223.424 401.668 217.152 404.548 211.776C407.492 206.4 411.492 202.208 416.548 199.2C421.668 196.192 427.556 194.688 434.212 194.688ZM433.828 196.416C430.244 196.416 427.108 197.856 424.42 200.736C421.796 203.616 419.748 207.584 418.276 212.64C416.868 217.696 416.164 223.552 416.164 230.208C416.164 236.992 416.964 242.912 418.564 247.968C420.228 252.96 422.436 256.832 425.188 259.584C428.004 262.272 431.108 263.616 434.5 263.616C438.084 263.616 441.188 262.176 443.812 259.296C446.5 256.416 448.548 252.448 449.956 247.392C451.428 242.272 452.164 236.416 452.164 229.824C452.164 222.976 451.332 217.056 449.668 212.064C448.068 207.072 445.86 203.232 443.044 200.544C440.292 197.792 437.22 196.416 433.828 196.416ZM516.577 202.368C525.729 202.368 533.473 203.392 539.809 205.44C546.145 207.424 550.977 210.432 554.305 214.464C557.633 218.432 559.297 223.424 559.297 229.44C559.297 235.264 557.601 240.288 554.209 244.512C550.817 248.672 545.921 251.904 539.521 254.208C533.185 256.512 525.505 257.664 516.481 257.664C507.393 257.664 499.649 256.608 493.249 254.496C486.913 252.384 482.081 249.248 478.753 245.088C475.425 240.928 473.761 235.776 473.761 229.632C473.761 224 475.457 219.168 478.849 215.136C482.241 211.04 487.137 207.904 493.537 205.728C499.937 203.488 507.617 202.368 516.577 202.368ZM516.193 203.808C509.921 203.808 504.833 204.704 500.929 206.496C497.025 208.288 494.177 211.072 492.385 214.848C490.593 218.56 489.697 223.36 489.697 229.248C489.697 235.712 490.689 240.928 492.673 244.896C494.657 248.8 497.665 251.68 501.697 253.536C505.793 255.328 510.849 256.224 516.865 256.224C523.201 256.224 528.289 255.296 532.129 253.44C536.033 251.52 538.881 248.64 540.673 244.8C542.465 240.896 543.361 235.904 543.361 229.824C543.361 223.552 542.369 218.528 540.385 214.752C538.401 210.912 535.393 208.128 531.361 206.4C527.393 204.672 522.337 203.808 516.193 203.808ZM531.457 188.928V190.848C529.409 190.912 527.841 191.168 526.753 191.616C525.729 192 525.057 192.768 524.737 193.92C524.417 195.008 524.257 196.736 524.257 199.104V260.928C524.257 263.232 524.417 264.96 524.737 266.112C525.121 267.264 525.825 268.032 526.849 268.416C527.873 268.8 529.409 269.056 531.457 269.184V271.104C529.729 270.976 527.553 270.88 524.929 270.816C522.305 270.816 519.649 270.816 516.961 270.816C513.889 270.816 510.977 270.816 508.225 270.816C505.537 270.88 503.393 270.976 501.793 271.104V269.184C503.841 269.056 505.377 268.8 506.401 268.416C507.425 268.032 508.097 267.264 508.417 266.112C508.801 264.96 508.993 263.232 508.993 260.928V199.104C508.993 196.736 508.801 195.008 508.417 193.92C508.097 192.768 507.393 192 506.305 191.616C505.281 191.168 503.777 190.912 501.793 190.848V188.928C503.393 188.992 505.537 189.056 508.225 189.12C510.977 189.184 513.889 189.216 516.961 189.216C519.649 189.216 522.305 189.184 524.929 189.12C527.553 189.056 529.729 188.992 531.457 188.928ZM622.45 196.032C622.194 199.296 622.002 202.432 621.874 205.44C621.81 208.448 621.778 210.752 621.778 212.352C621.778 213.76 621.81 215.104 621.874 216.384C621.938 217.664 622.002 218.752 622.066 219.648H619.858C618.834 214.272 617.522 210.016 615.922 206.88C614.386 203.744 612.53 201.536 610.354 200.256C608.178 198.912 605.618 198.24 602.674 198.24H600.466V253.056C600.466 255.616 600.722 257.536 601.234 258.816C601.81 260.096 602.834 260.96 604.306 261.408C605.778 261.792 607.922 262.016 610.738 262.08V264C608.754 263.936 606.098 263.872 602.77 263.808C599.506 263.744 596.082 263.712 592.498 263.712C588.978 263.712 585.65 263.744 582.514 263.808C579.378 263.872 576.85 263.936 574.93 264V262.08C577.81 262.016 579.986 261.792 581.458 261.408C582.93 260.96 583.922 260.096 584.434 258.816C584.946 257.536 585.202 255.616 585.202 253.056V198.24H583.09C580.146 198.24 577.586 198.912 575.41 200.256C573.234 201.536 571.378 203.744 569.842 206.88C568.306 209.952 566.962 214.208 565.81 219.648H563.602C563.73 218.752 563.794 217.664 563.794 216.384C563.858 215.104 563.89 213.76 563.89 212.352C563.89 210.752 563.826 208.448 563.698 205.44C563.634 202.432 563.474 199.296 563.218 196.032C566.162 196.096 569.362 196.16 572.818 196.224C576.338 196.288 579.858 196.32 583.378 196.32C586.898 196.32 590.066 196.32 592.882 196.32C595.762 196.32 598.93 196.32 602.386 196.32C605.906 196.32 609.426 196.288 612.946 196.224C616.466 196.16 619.634 196.096 622.45 196.032Z" fill="#132133"/>
<path d="M250.274 32.9431C255.491 37.2848 260.46 41.88 265.376 46.5563C266.021 47.148 266.665 47.7397 267.329 48.3493C290.34 70.1238 304.672 103.496 308.376 134.556C308.417 136.889 308.43 139.224 308.376 141.556C306.026 138.031 304.996 134.432 303.751 130.431C290.881 90.8315 262.114 56.1687 225.126 36.8727C216.796 32.7164 208.239 29.389 199.376 26.5563C198.531 26.2839 197.686 26.0114 196.816 25.7306C162.463 15.221 123.041 20.3006 91.4425 36.5329C79.5411 42.9312 69.184 51.3332 59.376 60.5563C58.7122 61.1441 58.0483 61.732 57.3643 62.3376C35.2855 82.7594 21.6321 117.227 20.2208 146.811C18.9019 186.608 27.1661 223.206 54.9044 253.01C73.037 272.057 97.6589 285.577 124.271 286.724C146.814 286.837 166.573 280.609 183.165 264.822C194.806 252.893 200.218 238.647 200.751 222.119C200.594 211.027 196.973 201.859 189.001 194.056C179.116 185.918 166.504 183.34 154.251 180.994C138.955 178.04 123.547 174.338 113.376 161.556C108.861 154.155 108.14 146.033 109.376 137.556C110.878 133.189 112.881 129.433 115.376 125.556C115.786 124.901 116.196 124.247 116.618 123.572C124.618 112.74 139.589 106.769 152.376 104.556C156.915 104.31 161.456 104.325 166.001 104.306C167.222 104.286 168.443 104.265 169.7 104.244C177.407 104.211 184.072 105.068 191.376 107.556C189.963 112.384 187.946 116.273 185.376 120.556C183.742 120.319 183.742 120.319 182.075 120.076C164.997 117.962 147.645 117.837 133.474 128.713C128.743 132.871 126.294 136.296 125.376 142.619C125.153 147.074 125.709 149.856 128.376 153.556C136.97 162.15 148.613 163.989 160.064 166.494C180.629 170.997 200.081 175.825 212.376 194.556C220.463 207.791 220.053 225.001 217.376 239.869C211.765 261.612 197.742 279.953 178.814 291.869C176.679 293.118 174.534 294.349 172.376 295.556C171.094 296.281 171.094 296.281 169.786 297.021C162.128 301.105 153.182 304.996 144.376 304.556C144.376 305.216 144.376 305.876 144.376 306.556C192.97 306.336 234.76 294.865 270.048 259.963C283.924 245.928 297.088 227.421 303.376 208.556C304.036 208.556 304.696 208.556 305.376 208.556C303.251 218.108 299.552 226.757 295.376 235.556C295.076 236.191 294.775 236.826 294.466 237.48C287.003 252.97 276.41 266.352 264.376 278.556C263.478 279.468 262.579 280.379 261.653 281.318C233.955 308.026 196.808 321.047 158.751 320.931C158.01 320.93 157.268 320.929 156.505 320.928C122.638 320.779 90.3376 309.13 63.376 288.556C62.4608 287.863 61.5456 287.169 60.6026 286.455C32.9269 264.647 12.9308 233.312 4.62605 199.056C4.42729 198.239 4.22853 197.421 4.02375 196.579C0.980511 183.267 -0.0374778 170.095 0.00104782 156.494C0.00192398 155.731 0.00280014 154.968 0.00370285 154.182C0.163504 111.793 16.7622 75.3673 45.376 44.5563C45.9265 43.9518 46.4769 43.3472 47.044 42.7243C98.6786 -11.7151 193.269 -13.192 250.274 32.9431Z" fill="url(#paint0_linear_13_9)"/>
<path d="M203.376 80.5564C202.777 84.1063 201.824 87.1045 200.314 90.3689C199.951 91.1591 199.589 91.9493 199.216 92.7634C198.8 93.6509 198.8 93.6509 198.376 94.5564C197.118 94.2676 195.86 93.9789 194.564 93.6814C185.325 91.6531 176.552 90.1884 167.064 90.2439C165.558 90.2513 165.558 90.2513 164.021 90.2588C156.111 90.383 148.971 91.2086 141.376 93.5564C140.295 93.8851 139.213 94.2138 138.099 94.5525C121.658 100.202 108.247 111.585 99.7511 126.697C94.881 136.824 94.3929 150.04 98.0011 160.744C103.777 173.835 114.298 181.471 127.376 186.556C135.144 189.131 143.156 190.917 151.169 192.541C163.22 194.994 175.809 197.954 183.376 208.556C187.95 216.407 188.855 224.77 186.61 233.552C184.844 238.718 182.702 243.191 179.376 247.556C178.572 248.763 178.572 248.763 177.751 249.994C171.429 256.815 163.389 261.327 154.376 263.556C151.552 263.654 151.552 263.654 149.376 263.556C150.077 263 150.779 262.443 151.501 261.869C152.45 261.106 153.399 260.343 154.376 259.556C155.325 258.855 156.274 258.154 157.251 257.431C165.179 250.794 170.585 240.766 171.571 230.529C171.874 224.633 170.872 220.349 167.376 215.556C159.914 209.556 150.812 208.141 141.689 206.056C119.78 200.995 98.0459 194.85 84.9112 175.103C77.055 162.07 74.6957 146.182 78.2511 131.306C84.3794 111.631 100.106 93.8501 118.309 84.22C144.454 71.0814 176.157 68.9752 203.376 80.5564Z" fill="url(#paint1_linear_13_9)"/>
<defs>
<linearGradient id="paint0_linear_13_9" x1="154.206" y1="0" x2="154.206" y2="320.932" gradientUnits="userSpaceOnUse">
<stop stop-color="#61A4FF"/>
<stop offset="0.721154" stop-color="#132133"/>
</linearGradient>
<linearGradient id="paint1_linear_13_9" x1="140.006" y1="72.9926" x2="140.006" y2="263.63" gradientUnits="userSpaceOnUse">
<stop stop-color="#61A4FF"/>
<stop offset="0.721154" stop-color="#132133"/>
</linearGradient>
</defs>
</svg>
